<?xml version="1.0" encoding="UTF-8" standalone="no"?>
<!-- Generator: Adobe Illustrator 22.1.0, SVG Export Plug-In . SVG Version: 6.00 Build 0)  -->

<svg
   xmlns:dc="http://purl.org/dc/elements/1.1/"
   xmlns:cc="http://creativecommons.org/ns#"
   xmlns:rdf="http://www.w3.org/1999/02/22-rdf-syntax-ns#"
   xmlns:svg="http://www.w3.org/2000/svg"
   xmlns="http://www.w3.org/2000/svg"
   xmlns:sodipodi="http://sodipodi.sourceforge.net/DTD/sodipodi-0.dtd"
   xmlns:inkscape="http://www.inkscape.org/namespaces/inkscape"
   version="1.1"
   id="Layer_1"
   x="0px"
   y="0px"
   viewBox="0 0 1100 850"
   style="enable-background:new 0 0 1100 850;"
   xml:space="preserve"
   sodipodi:docname="PagesAsIllustration-NodeBox.svg"
   inkscape:version="0.92.2 5c3e80d, 2017-08-06"><metadata
     id="metadata3043"><rdf:RDF><cc:Work
         rdf:about=""><dc:format>image/svg+xml</dc:format><dc:type
           rdf:resource="http://purl.org/dc/dcmitype/StillImage" /></cc:Work></rdf:RDF></metadata><defs
     id="defs3041" /><sodipodi:namedview
     pagecolor="#ffffff"
     bordercolor="#666666"
     borderopacity="1"
     objecttolerance="10"
     gridtolerance="10"
     guidetolerance="10"
     inkscape:pageopacity="0"
     inkscape:pageshadow="2"
     inkscape:window-width="1368"
     inkscape:window-height="729"
     id="namedview3039"
     showgrid="false"
     inkscape:zoom="0.52363636"
     inkscape:cx="935.76389"
     inkscape:cy="619.79167"
     inkscape:window-x="0"
     inkscape:window-y="0"
     inkscape:window-maximized="0"
     inkscape:current-layer="Layer_1" /><style
     type="text/css"
     id="style2420">
	.st0{stroke:#FFFFFF;}
</style><g
     id="g2448"><path
       d="M349.2,719.9v151h100V734.8l0,0l-19.8-14.9H349.2z"
       id="path2422" /><path
       class="st0"
       d="M360.2,738.4h60"
       id="path2424" /><path
       class="st0"
       d="M360.2,748.4h75"
       id="path2426" /><path
       class="st0"
       d="M360.2,758.4h69"
       id="path2428" /><path
       class="st0"
       d="M360.2,768.4h70"
       id="path2430" /><path
       class="st0"
       d="M360.2,778.4h67"
       id="path2432" /><path
       class="st0"
       d="M360.2,788.4h58"
       id="path2434" /><path
       class="st0"
       d="M360.2,798.4h68"
       id="path2436" /><path
       class="st0"
       d="M360.2,808.4h71"
       id="path2438" /><path
       class="st0"
       d="M360.2,818.4h53"
       id="path2440" /><path
       class="st0"
       d="M360.2,828.4h62"
       id="path2442" /><path
       class="st0"
       d="M360.2,838.4h59"
       id="path2444" /><path
       class="st0"
       d="M360.2,848.4h20"
       id="path2446" /></g><g
     id="g2476"><path
       d="M981.3-51.8v151h100V-36.8l0,0l-19.8-14.9H981.3z"
       id="path2450" /><path
       class="st0"
       d="M992.3-33.3h60"
       id="path2452" /><path
       class="st0"
       d="M992.3-23.3h75"
       id="path2454" /><path
       class="st0"
       d="M992.3-13.3h69"
       id="path2456" /><path
       class="st0"
       d="M992.3-3.3h70"
       id="path2458" /><path
       class="st0"
       d="M992.3,6.7h67"
       id="path2460" /><path
       class="st0"
       d="M992.3,16.7h58"
       id="path2462" /><path
       class="st0"
       d="M992.3,26.7h68"
       id="path2464" /><path
       class="st0"
       d="M992.3,36.7h71"
       id="path2466" /><path
       class="st0"
       d="M992.3,46.7h53"
       id="path2468" /><path
       class="st0"
       d="M992.3,56.7h62"
       id="path2470" /><path
       class="st0"
       d="M992.3,66.7h59"
       id="path2472" /><path
       class="st0"
       d="M992.3,76.7h20"
       id="path2474" /></g><g
     id="g2504"><path
       d="M20.8,58.8v151h100V73.7l0,0l-19.8-14.9H20.8z"
       id="path2478" /><path
       class="st0"
       d="M31.8,77.3h60"
       id="path2480" /><path
       class="st0"
       d="M31.8,87.3h75"
       id="path2482" /><path
       class="st0"
       d="M31.8,97.3h69"
       id="path2484" /><path
       class="st0"
       d="M31.8,107.3h70"
       id="path2486" /><path
       class="st0"
       d="M31.8,117.3h67"
       id="path2488" /><path
       class="st0"
       d="M31.8,127.3h58"
       id="path2490" /><path
       class="st0"
       d="M31.8,137.3h68"
       id="path2492" /><path
       class="st0"
       d="M31.8,147.3h71"
       id="path2494" /><path
       class="st0"
       d="M31.8,157.3h53"
       id="path2496" /><path
       class="st0"
       d="M31.8,167.3h62"
       id="path2498" /><path
       class="st0"
       d="M31.8,177.3h59"
       id="path2500" /><path
       class="st0"
       d="M31.8,187.3h20"
       id="path2502" /></g><g
     id="g2532"><path
       d="M668.3,650.9v151h100V665.8l0,0l-19.8-14.9H668.3z"
       id="path2506" /><path
       class="st0"
       d="M679.3,669.4h60"
       id="path2508" /><path
       class="st0"
       d="M679.3,679.4h75"
       id="path2510" /><path
       class="st0"
       d="M679.3,689.4h69"
       id="path2512" /><path
       class="st0"
       d="M679.3,699.4h70"
       id="path2514" /><path
       class="st0"
       d="M679.3,709.4h67"
       id="path2516" /><path
       class="st0"
       d="M679.3,719.4h58"
       id="path2518" /><path
       class="st0"
       d="M679.3,729.4h68"
       id="path2520" /><path
       class="st0"
       d="M679.3,739.4h71"
       id="path2522" /><path
       class="st0"
       d="M679.3,749.4h53"
       id="path2524" /><path
       class="st0"
       d="M679.3,759.4h62"
       id="path2526" /><path
       class="st0"
       d="M679.3,769.4h59"
       id="path2528" /><path
       class="st0"
       d="M679.3,779.4h20"
       id="path2530" /></g><g
     id="g2560"><path
       d="M253,458.1v151h100V473l0,0l-19.8-14.9H253z"
       id="path2534" /><path
       class="st0"
       d="M264,476.6h60"
       id="path2536" /><path
       class="st0"
       d="M264,486.6h75"
       id="path2538" /><path
       class="st0"
       d="M264,496.6h69"
       id="path2540" /><path
       class="st0"
       d="M264,506.6h70"
       id="path2542" /><path
       class="st0"
       d="M264,516.6h67"
       id="path2544" /><path
       class="st0"
       d="M264,526.6h58"
       id="path2546" /><path
       class="st0"
       d="M264,536.6h68"
       id="path2548" /><path
       class="st0"
       d="M264,546.6h71"
       id="path2550" /><path
       class="st0"
       d="M264,556.6h53"
       id="path2552" /><path
       class="st0"
       d="M264,566.6h62"
       id="path2554" /><path
       class="st0"
       d="M264,576.6h59"
       id="path2556" /><path
       class="st0"
       d="M264,586.6h20"
       id="path2558" /></g><g
     id="g2588"><path
       d="M873,653.9v151h100V668.8l0,0l-19.8-14.9H873z"
       id="path2562" /><path
       class="st0"
       d="M884,672.4h60"
       id="path2564" /><path
       class="st0"
       d="M884,682.4h75"
       id="path2566" /><path
       class="st0"
       d="M884,692.4h69"
       id="path2568" /><path
       class="st0"
       d="M884,702.4h70"
       id="path2570" /><path
       class="st0"
       d="M884,712.4h67"
       id="path2572" /><path
       class="st0"
       d="M884,722.4h58"
       id="path2574" /><path
       class="st0"
       d="M884,732.4h68"
       id="path2576" /><path
       class="st0"
       d="M884,742.4h71"
       id="path2578" /><path
       class="st0"
       d="M884,752.4h53"
       id="path2580" /><path
       class="st0"
       d="M884,762.4h62"
       id="path2582" /><path
       class="st0"
       d="M884,772.4h59"
       id="path2584" /><path
       class="st0"
       d="M884,782.4h20"
       id="path2586" /></g><g
     id="g2616"><path
       d="M173.7,413.1v151h100V428l0,0l-19.8-14.9H173.7z"
       id="path2590" /><path
       class="st0"
       d="M184.7,431.6h60"
       id="path2592" /><path
       class="st0"
       d="M184.7,441.6h75"
       id="path2594" /><path
       class="st0"
       d="M184.7,451.6h69"
       id="path2596" /><path
       class="st0"
       d="M184.7,461.6h70"
       id="path2598" /><path
       class="st0"
       d="M184.7,471.6h67"
       id="path2600" /><path
       class="st0"
       d="M184.7,481.6h58"
       id="path2602" /><path
       class="st0"
       d="M184.7,491.6h68"
       id="path2604" /><path
       class="st0"
       d="M184.7,501.6h71"
       id="path2606" /><path
       class="st0"
       d="M184.7,511.6h53"
       id="path2608" /><path
       class="st0"
       d="M184.7,521.6h62"
       id="path2610" /><path
       class="st0"
       d="M184.7,531.6h59"
       id="path2612" /><path
       class="st0"
       d="M184.7,541.6h20"
       id="path2614" /></g><g
     id="g2644"><path
       d="M816.8,19.7v151h100V34.7l0,0L897,19.7H816.8z"
       id="path2618" /><path
       class="st0"
       d="M827.8,38.2h60"
       id="path2620" /><path
       class="st0"
       d="M827.8,48.2h75"
       id="path2622" /><path
       class="st0"
       d="M827.8,58.2h69"
       id="path2624" /><path
       class="st0"
       d="M827.8,68.2h70"
       id="path2626" /><path
       class="st0"
       d="M827.8,78.2h67"
       id="path2628" /><path
       class="st0"
       d="M827.8,88.2h58"
       id="path2630" /><path
       class="st0"
       d="M827.8,98.2h68"
       id="path2632" /><path
       class="st0"
       d="M827.8,108.2h71"
       id="path2634" /><path
       class="st0"
       d="M827.8,118.2h53"
       id="path2636" /><path
       class="st0"
       d="M827.8,128.2h62"
       id="path2638" /><path
       class="st0"
       d="M827.8,138.2h59"
       id="path2640" /><path
       class="st0"
       d="M827.8,148.2h20"
       id="path2642" /></g><g
     id="g2672"><path
       d="M331.3,50.5v151h100V65.4l0,0l-19.8-14.9H331.3z"
       id="path2646" /><path
       class="st0"
       d="M342.3,69h60"
       id="path2648" /><path
       class="st0"
       d="M342.3,79h75"
       id="path2650" /><path
       class="st0"
       d="M342.3,89h69"
       id="path2652" /><path
       class="st0"
       d="M342.3,99h70"
       id="path2654" /><path
       class="st0"
       d="M342.3,109h67"
       id="path2656" /><path
       class="st0"
       d="M342.3,119h58"
       id="path2658" /><path
       class="st0"
       d="M342.3,129h68"
       id="path2660" /><path
       class="st0"
       d="M342.3,139h71"
       id="path2662" /><path
       class="st0"
       d="M342.3,149h53"
       id="path2664" /><path
       class="st0"
       d="M342.3,159h62"
       id="path2666" /><path
       class="st0"
       d="M342.3,169h59"
       id="path2668" /><path
       class="st0"
       d="M342.3,179h20"
       id="path2670" /></g><g
     id="g2700"><path
       d="M497.4,426.7v151h100V441.6l0,0l-19.8-14.9H497.4z"
       id="path2674" /><path
       class="st0"
       d="M508.4,445.2h60"
       id="path2676" /><path
       class="st0"
       d="M508.4,455.2h75"
       id="path2678" /><path
       class="st0"
       d="M508.4,465.2h69"
       id="path2680" /><path
       class="st0"
       d="M508.4,475.2h70"
       id="path2682" /><path
       class="st0"
       d="M508.4,485.2h67"
       id="path2684" /><path
       class="st0"
       d="M508.4,495.2h58"
       id="path2686" /><path
       class="st0"
       d="M508.4,505.2h68"
       id="path2688" /><path
       class="st0"
       d="M508.4,515.2h71"
       id="path2690" /><path
       class="st0"
       d="M508.4,525.2h53"
       id="path2692" /><path
       class="st0"
       d="M508.4,535.2h62"
       id="path2694" /><path
       class="st0"
       d="M508.4,545.2h59"
       id="path2696" /><path
       class="st0"
       d="M508.4,555.2h20"
       id="path2698" /></g><g
     id="g2728"
     transform="translate(34.375,110.76389)"><path
       d="m 657.8,102.3 v 151 h 100 v -136.1 0 L 738,102.3 Z"
       id="path2702"
       inkscape:connector-curvature="0" /><path
       class="st0"
       d="m 668.8,120.8 h 60"
       id="path2704"
       inkscape:connector-curvature="0"
       style="stroke:#ffffff" /><path
       class="st0"
       d="m 668.8,130.8 h 75"
       id="path2706"
       inkscape:connector-curvature="0"
       style="stroke:#ffffff" /><path
       class="st0"
       d="m 668.8,140.8 h 69"
       id="path2708"
       inkscape:connector-curvature="0"
       style="stroke:#ffffff" /><path
       class="st0"
       d="m 668.8,150.8 h 70"
       id="path2710"
       inkscape:connector-curvature="0"
       style="stroke:#ffffff" /><path
       class="st0"
       d="m 668.8,160.8 h 67"
       id="path2712"
       inkscape:connector-curvature="0"
       style="stroke:#ffffff" /><path
       class="st0"
       d="m 668.8,170.8 h 58"
       id="path2714"
       inkscape:connector-curvature="0"
       style="stroke:#ffffff" /><path
       class="st0"
       d="m 668.8,180.8 h 68"
       id="path2716"
       inkscape:connector-curvature="0"
       style="stroke:#ffffff" /><path
       class="st0"
       d="m 668.8,190.8 h 71"
       id="path2718"
       inkscape:connector-curvature="0"
       style="stroke:#ffffff" /><path
       class="st0"
       d="m 668.8,200.8 h 53"
       id="path2720"
       inkscape:connector-curvature="0"
       style="stroke:#ffffff" /><path
       class="st0"
       d="m 668.8,210.8 h 62"
       id="path2722"
       inkscape:connector-curvature="0"
       style="stroke:#ffffff" /><path
       class="st0"
       d="m 668.8,220.8 h 59"
       id="path2724"
       inkscape:connector-curvature="0"
       style="stroke:#ffffff" /><path
       class="st0"
       d="m 668.8,230.8 h 20"
       id="path2726"
       inkscape:connector-curvature="0"
       style="stroke:#ffffff" /></g><g
     id="g2756"><path
       d="M52.8,294.2v151h100V309.2l0,0l-19.8-14.9H52.8z"
       id="path2730" /><path
       class="st0"
       d="M63.8,312.8h60"
       id="path2732" /><path
       class="st0"
       d="M63.8,322.8h75"
       id="path2734" /><path
       class="st0"
       d="M63.8,332.8h69"
       id="path2736" /><path
       class="st0"
       d="M63.8,342.8h70"
       id="path2738" /><path
       class="st0"
       d="M63.8,352.8h67"
       id="path2740" /><path
       class="st0"
       d="M63.8,362.8h58"
       id="path2742" /><path
       class="st0"
       d="M63.8,372.8h68"
       id="path2744" /><path
       class="st0"
       d="M63.8,382.8h71"
       id="path2746" /><path
       class="st0"
       d="M63.8,392.8h53"
       id="path2748" /><path
       class="st0"
       d="M63.8,402.8h62"
       id="path2750" /><path
       class="st0"
       d="M63.8,412.8h59"
       id="path2752" /><path
       class="st0"
       d="M63.8,422.8h20"
       id="path2754" /></g><g
     id="g2784"><path
       d="M853,307.2v151h100V322.2l0,0l-19.8-14.9H853z"
       id="path2758" /><path
       class="st0"
       d="M864,325.8h60"
       id="path2760" /><path
       class="st0"
       d="M864,335.8h75"
       id="path2762" /><path
       class="st0"
       d="M864,345.8h69"
       id="path2764" /><path
       class="st0"
       d="M864,355.8h70"
       id="path2766" /><path
       class="st0"
       d="M864,365.8h67"
       id="path2768" /><path
       class="st0"
       d="M864,375.8h58"
       id="path2770" /><path
       class="st0"
       d="M864,385.8h68"
       id="path2772" /><path
       class="st0"
       d="M864,395.8h71"
       id="path2774" /><path
       class="st0"
       d="M864,405.8h53"
       id="path2776" /><path
       class="st0"
       d="M864,415.8h62"
       id="path2778" /><path
       class="st0"
       d="M864,425.8h59"
       id="path2780" /><path
       class="st0"
       d="M864,435.8h20"
       id="path2782" /></g><g
     id="g2812"><path
       d="M388.2,331.2v151h100V346.2l0,0l-19.8-14.9H388.2z"
       id="path2786" /><path
       class="st0"
       d="M399.2,349.8h60"
       id="path2788" /><path
       class="st0"
       d="M399.2,359.8h75"
       id="path2790" /><path
       class="st0"
       d="M399.2,369.8h69"
       id="path2792" /><path
       class="st0"
       d="M399.2,379.8h70"
       id="path2794" /><path
       class="st0"
       d="M399.2,389.8h67"
       id="path2796" /><path
       class="st0"
       d="M399.2,399.8h58"
       id="path2798" /><path
       class="st0"
       d="M399.2,409.8h68"
       id="path2800" /><path
       class="st0"
       d="M399.2,419.8h71"
       id="path2802" /><path
       class="st0"
       d="M399.2,429.8h53"
       id="path2804" /><path
       class="st0"
       d="M399.2,439.8h62"
       id="path2806" /><path
       class="st0"
       d="M399.2,449.8h59"
       id="path2808" /><path
       class="st0"
       d="M399.2,459.8h20"
       id="path2810" /></g><g
     id="g2840"><path
       d="M117.9,539.1v151h100V554.1l0,0l-19.8-14.9H117.9z"
       id="path2814" /><path
       class="st0"
       d="M128.9,557.6h60"
       id="path2816" /><path
       class="st0"
       d="M128.9,567.6h75"
       id="path2818" /><path
       class="st0"
       d="M128.9,577.6h69"
       id="path2820" /><path
       class="st0"
       d="M128.9,587.6h70"
       id="path2822" /><path
       class="st0"
       d="M128.9,597.6h67"
       id="path2824" /><path
       class="st0"
       d="M128.9,607.6h58"
       id="path2826" /><path
       class="st0"
       d="M128.9,617.6h68"
       id="path2828" /><path
       class="st0"
       d="M128.9,627.6h71"
       id="path2830" /><path
       class="st0"
       d="M128.9,637.6h53"
       id="path2832" /><path
       class="st0"
       d="M128.9,647.6h62"
       id="path2834" /><path
       class="st0"
       d="M128.9,657.6h59"
       id="path2836" /><path
       class="st0"
       d="M128.9,667.6h20"
       id="path2838" /></g><g
     id="g2868"><path
       d="M455.7,241.4v151h100V256.3l0,0l-19.8-14.9H455.7z"
       id="path2842" /><path
       class="st0"
       d="M466.7,259.9h60"
       id="path2844" /><path
       class="st0"
       d="M466.7,269.9h75"
       id="path2846" /><path
       class="st0"
       d="M466.7,279.9h69"
       id="path2848" /><path
       class="st0"
       d="M466.7,289.9h70"
       id="path2850" /><path
       class="st0"
       d="M466.7,299.9h67"
       id="path2852" /><path
       class="st0"
       d="M466.7,309.9h58"
       id="path2854" /><path
       class="st0"
       d="M466.7,319.9h68"
       id="path2856" /><path
       class="st0"
       d="M466.7,329.9h71"
       id="path2858" /><path
       class="st0"
       d="M466.7,339.9h53"
       id="path2860" /><path
       class="st0"
       d="M466.7,349.9h62"
       id="path2862" /><path
       class="st0"
       d="M466.7,359.9h59"
       id="path2864" /><path
       class="st0"
       d="M466.7,369.9h20"
       id="path2866" /></g><g
     id="g2896"><path
       d="M970.1,405.1v151h100V420l0,0l-19.8-14.9H970.1z"
       id="path2870" /><path
       class="st0"
       d="M981.1,423.6h60"
       id="path2872" /><path
       class="st0"
       d="M981.1,433.6h75"
       id="path2874" /><path
       class="st0"
       d="M981.1,443.6h69"
       id="path2876" /><path
       class="st0"
       d="M981.1,453.6h70"
       id="path2878" /><path
       class="st0"
       d="M981.1,463.6h67"
       id="path2880" /><path
       class="st0"
       d="M981.1,473.6h58"
       id="path2882" /><path
       class="st0"
       d="M981.1,483.6h68"
       id="path2884" /><path
       class="st0"
       d="M981.1,493.6h71"
       id="path2886" /><path
       class="st0"
       d="M981.1,503.6h53"
       id="path2888" /><path
       class="st0"
       d="M981.1,513.6h62"
       id="path2890" /><path
       class="st0"
       d="M981.1,523.6h59"
       id="path2892" /><path
       class="st0"
       d="M981.1,533.6h20"
       id="path2894" /></g><g
     id="g2924"><path
       d="M455.1,233.4v151h100V248.3l0,0l-19.8-14.9H455.1z"
       id="path2898" /><path
       class="st0"
       d="M466.1,251.9h60"
       id="path2900" /><path
       class="st0"
       d="M466.1,261.9h75"
       id="path2902" /><path
       class="st0"
       d="M466.1,271.9h69"
       id="path2904" /><path
       class="st0"
       d="M466.1,281.9h70"
       id="path2906" /><path
       class="st0"
       d="M466.1,291.9h67"
       id="path2908" /><path
       class="st0"
       d="M466.1,301.9h58"
       id="path2910" /><path
       class="st0"
       d="M466.1,311.9h68"
       id="path2912" /><path
       class="st0"
       d="M466.1,321.9h71"
       id="path2914" /><path
       class="st0"
       d="M466.1,331.9h53"
       id="path2916" /><path
       class="st0"
       d="M466.1,341.9h62"
       id="path2918" /><path
       class="st0"
       d="M466.1,351.9h59"
       id="path2920" /><path
       class="st0"
       d="M466.1,361.9h20"
       id="path2922" /></g><g
     id="g2952"><path
       d="M733.8,515.5v151h100V530.4l0,0l-19.8-14.9H733.8z"
       id="path2926" /><path
       class="st0"
       d="M744.8,534h60"
       id="path2928" /><path
       class="st0"
       d="M744.8,544h75"
       id="path2930" /><path
       class="st0"
       d="M744.8,554h69"
       id="path2932" /><path
       class="st0"
       d="M744.8,564h70"
       id="path2934" /><path
       class="st0"
       d="M744.8,574h67"
       id="path2936" /><path
       class="st0"
       d="M744.8,584h58"
       id="path2938" /><path
       class="st0"
       d="M744.8,594h68"
       id="path2940" /><path
       class="st0"
       d="M744.8,604h71"
       id="path2942" /><path
       class="st0"
       d="M744.8,614h53"
       id="path2944" /><path
       class="st0"
       d="M744.8,624h62"
       id="path2946" /><path
       class="st0"
       d="M744.8,634h59"
       id="path2948" /><path
       class="st0"
       d="M744.8,644h20"
       id="path2950" /></g><g
     id="g2980"><path
       d="M509.8,121.8v151h100V136.8l0,0L590,121.8H509.8z"
       id="path2954" /><path
       class="st0"
       d="M520.8,140.3h60"
       id="path2956" /><path
       class="st0"
       d="M520.8,150.3h75"
       id="path2958" /><path
       class="st0"
       d="M520.8,160.3h69"
       id="path2960" /><path
       class="st0"
       d="M520.8,170.3h70"
       id="path2962" /><path
       class="st0"
       d="M520.8,180.3h67"
       id="path2964" /><path
       class="st0"
       d="M520.8,190.3h58"
       id="path2966" /><path
       class="st0"
       d="M520.8,200.3h68"
       id="path2968" /><path
       class="st0"
       d="M520.8,210.3h71"
       id="path2970" /><path
       class="st0"
       d="M520.8,220.3h53"
       id="path2972" /><path
       class="st0"
       d="M520.8,230.3h62"
       id="path2974" /><path
       class="st0"
       d="M520.8,240.3h59"
       id="path2976" /><path
       class="st0"
       d="M520.8,250.3h20"
       id="path2978" /></g><g
     id="g3008"><path
       d="M46.9-24.3v151h100V-9.3l0,0l-19.8-14.9H46.9z"
       id="path2982" /><path
       class="st0"
       d="M57.9-5.8h60"
       id="path2984" /><path
       class="st0"
       d="M57.9,4.2h75"
       id="path2986" /><path
       class="st0"
       d="M57.9,14.2h69"
       id="path2988" /><path
       class="st0"
       d="M57.9,24.2h70"
       id="path2990" /><path
       class="st0"
       d="M57.9,34.2h67"
       id="path2992" /><path
       class="st0"
       d="M57.9,44.2h58"
       id="path2994" /><path
       class="st0"
       d="M57.9,54.2h68"
       id="path2996" /><path
       class="st0"
       d="M57.9,64.2h71"
       id="path2998" /><path
       class="st0"
       d="M57.9,74.2h53"
       id="path3000" /><path
       class="st0"
       d="M57.9,84.2h62"
       id="path3002" /><path
       class="st0"
       d="M57.9,94.2h59"
       id="path3004" /><path
       class="st0"
       d="M57.9,104.2h20"
       id="path3006" /></g><g
     id="g3036"><path
       d="M206.4,207.3v151h100V222.3l0,0l-19.8-14.9H206.4z"
       id="path3010" /><path
       class="st0"
       d="M217.4,225.8h60"
       id="path3012" /><path
       class="st0"
       d="M217.4,235.8h75"
       id="path3014" /><path
       class="st0"
       d="M217.4,245.8h69"
       id="path3016" /><path
       class="st0"
       d="M217.4,255.8h70"
       id="path3018" /><path
       class="st0"
       d="M217.4,265.8h67"
       id="path3020" /><path
       class="st0"
       d="M217.4,275.8h58"
       id="path3022" /><path
       class="st0"
       d="M217.4,285.8h68"
       id="path3024" /><path
       class="st0"
       d="M217.4,295.8h71"
       id="path3026" /><path
       class="st0"
       d="M217.4,305.8h53"
       id="path3028" /><path
       class="st0"
       d="M217.4,315.8h62"
       id="path3030" /><path
       class="st0"
       d="M217.4,325.8h59"
       id="path3032" /><path
       class="st0"
       d="M217.4,335.8h20"
       id="path3034" /></g></svg>