<svg width="108" height="21" viewBox="0 0 108 21" version="1.1" xmlns="http://www.w3.org/2000/svg" xmlns:xlink="http://www.w3.org/1999/xlink">
<g id="Canvas" fill="none">
<g id="AGORA" transform="translate(0.373901 0.923828)">
<path d="M 20.856 19.344L 12.888 19.344L 12.888 18.36L 15.288 16.704L 13.584 12.576L 5.784 12.576L 4.08 16.584L 8.064 18.144L 7.464 19.344L 0 19.344L 0 18.36L 2.4 16.512L 8.928 1.248L 12.072 0.0239997L 19.008 16.776L 21.456 18.144L 20.856 19.344ZM 9.768 3.288L 6.384 11.208L 13.032 11.208L 9.768 3.288Z" fill="black"/>
<path d="M 40.2647 15.384L 40.9127 16.584L 36.4967 19.296C 35.7767 19.504 35.0807 19.64 34.4087 19.704C 33.7527 19.784 33.0407 19.824 32.2727 19.824C 30.4327 19.824 28.8007 19.416 27.3767 18.6C 25.9687 17.784 24.8727 16.664 24.0887 15.24C 23.3047 13.8 22.9127 12.168 22.9127 10.344C 22.9127 8.472 23.4967 6.744 24.6647 5.16C 25.8487 3.56 27.3127 2.304 29.0567 1.392C 30.8007 0.464 32.4567 0 34.0247 0C 34.9687 0 36.0727 0.12 37.3367 0.36C 38.6167 0.599999 39.5447 0.855999 40.1207 1.128L 40.1207 6.192L 38.6567 6.192C 37.1367 3.6 35.1287 2.304 32.6327 2.304C 31.5287 2.304 30.5287 2.6 29.6327 3.192C 28.7367 3.784 28.0327 4.608 27.5207 5.664C 27.0087 6.704 26.7527 7.88 26.7527 9.192C 26.7527 10.712 27.0007 12.096 27.4967 13.344C 27.9927 14.592 28.7527 15.592 29.7767 16.344C 30.8167 17.096 32.0967 17.472 33.6167 17.472C 34.2727 17.472 34.8087 17.456 35.2247 17.424C 35.6567 17.392 36.1527 17.296 36.7127 17.136L 36.7127 11.76L 32.9687 10.8L 33.5687 9.6L 42.5447 9.6L 42.5447 10.584L 40.2647 12.432L 40.2647 15.384Z" fill="black"/>
<path d="M 55.6451 0C 57.4051 0 58.9571 0.408 60.3011 1.224C 61.6611 2.04 62.7091 3.168 63.4451 4.608C 64.1811 6.048 64.5491 7.68 64.5491 9.504C 64.5491 11.376 63.9891 13.104 62.8691 14.688C 61.7491 16.272 60.3571 17.528 58.6931 18.456C 57.0291 19.368 55.4451 19.824 53.9411 19.824C 52.1971 19.824 50.6531 19.424 49.3091 18.624C 47.9651 17.808 46.9171 16.68 46.1651 15.24C 45.4291 13.8 45.0611 12.168 45.0611 10.344C 45.0611 8.472 45.6211 6.744 46.7411 5.16C 47.8611 3.56 49.2451 2.304 50.8931 1.392C 52.5571 0.464 54.1411 0 55.6451 0ZM 54.2531 2.304C 53.2611 2.304 52.3571 2.6 51.5411 3.192C 50.7251 3.784 50.0771 4.608 49.5971 5.664C 49.1331 6.72 48.9011 7.896 48.9011 9.192C 48.9011 10.712 49.1331 12.104 49.5971 13.368C 50.0771 14.616 50.7971 15.616 51.7571 16.368C 52.7171 17.12 53.9091 17.496 55.3331 17.496C 56.3251 17.496 57.2291 17.2 58.0451 16.608C 58.8771 16.016 59.5251 15.2 59.9891 14.16C 60.4691 13.104 60.7091 11.928 60.7091 10.632C 60.7091 9.096 60.4691 7.704 59.9891 6.456C 59.5251 5.192 58.8051 4.184 57.8291 3.432C 56.8691 2.68 55.6771 2.304 54.2531 2.304Z" fill="black"/>
<path d="M 85.3423 19.344L 80.5663 19.344L 75.5503 10.92L 74.4703 10.152L 74.9023 9.264L 76.1743 9.264C 77.1663 9.264 77.9503 8.992 78.5263 8.448C 79.1023 7.904 79.3903 7.152 79.3903 6.192C 79.3903 4.976 79.0543 3.976 78.3823 3.192C 77.7263 2.408 76.7663 2.016 75.5023 2.016C 74.6703 2.016 73.9103 2.264 73.2223 2.76L 73.2223 17.328L 75.7903 18.144L 75.1903 19.344L 67.4143 19.344L 67.4143 18.36L 69.6703 16.536L 69.6703 2.448L 67.1263 1.68L 67.7263 0.48L 70.9903 0.48C 72.4143 0.48 73.8143 0.432 75.1903 0.336C 76.2143 0.272 76.9663 0.24 77.4463 0.24C 78.5823 0.24 79.5903 0.456 80.4703 0.888C 81.3503 1.32 82.0303 1.912 82.5103 2.664C 82.9903 3.4 83.2303 4.216 83.2303 5.112C 83.2303 6.28 82.7263 7.352 81.7183 8.328C 80.7103 9.304 79.4943 10.024 78.0703 10.488L 79.7983 11.04L 83.2783 16.872L 85.9423 18.144L 85.3423 19.344Z" fill="black"/>
<path d="M 106.708 19.344L 98.7396 19.344L 98.7396 18.36L 101.14 16.704L 99.4356 12.576L 91.6356 12.576L 89.9316 16.584L 93.9156 18.144L 93.3156 19.344L 85.8516 19.344L 85.8516 18.36L 88.2516 16.512L 94.7796 1.248L 97.9236 0.0239997L 104.86 16.776L 107.308 18.144L 106.708 19.344ZM 95.6196 3.288L 92.2356 11.208L 98.8836 11.208L 95.6196 3.288Z" fill="black"/>
</g>
</g>
</svg>
