<svg width="41" height="41" viewBox="0 0 41 41" version="1.1" xmlns="http://www.w3.org/2000/svg" xmlns:xlink="http://www.w3.org/1999/xlink">
<g id="Canvas" fill="none">
<g id="Group">
<g id="Group_2">
<path id="Vector" d="M 24.3188 3.77705C 24.1235 3.58178 23.807 3.58178 23.6117 3.77705L 20.4297 6.95903C 20.2345 7.15429 20.2345 7.47087 20.4297 7.66613C 20.625 7.8614 20.9416 7.8614 21.1368 7.66613L 23.9652 4.83771L 26.7937 7.66613C 26.9889 7.8614 27.3055 7.8614 27.5008 7.66613C 27.696 7.47087 27.696 7.15429 27.5008 6.95903L 24.3188 3.77705ZM 8.67182 0.0204902L 8.74757 0.514718L 8.74785 0.514676L 8.67182 0.0204902ZM 9.14974 10.4391L 9.24517 9.94833C 9.23873 9.94708 9.23226 9.94595 9.22577 9.94495L 9.14974 10.4391ZM 7.68719 6.0135C 7.88246 5.81823 7.88246 5.50165 7.68719 5.30639L 4.50521 2.12441C 4.30995 1.92915 3.99337 1.92915 3.79811 2.12441C 3.60284 2.31967 3.60284 2.63625 3.79811 2.83152L 6.62653 5.65994L 3.79811 8.48837C 3.60284 8.68363 3.60284 9.00021 3.79811 9.19548C 3.99337 9.39074 4.30995 9.39074 4.50521 9.19548L 7.68719 6.0135ZM 23.4652 4.1306C 23.4652 12.0216 20.9092 15.7459 17.7032 17.0586C 14.4392 18.395 10.2507 17.3488 6.76572 15.1311C 5.03518 14.0298 3.51118 12.6586 2.39912 11.1998C 1.28359 9.73639 0.605702 8.21609 0.511385 6.81226C 0.41869 5.4326 0.885067 4.1295 2.13831 3.03586C 3.41112 1.92513 5.52271 1.00904 8.74757 0.514718L 8.59606 -0.473737C 5.27342 0.0355724 2.9523 0.9983 1.48081 2.2824C -0.0102479 3.58358 -0.599775 5.19132 -0.486366 6.8793C -0.374581 8.54312 0.415638 10.2473 1.60384 11.806C 2.7955 13.3693 4.41083 14.8178 6.22884 15.9747C 9.84096 18.2733 14.3865 19.4972 18.0821 17.984C 21.8359 16.4471 24.4652 12.2021 24.4652 4.1306L 23.4652 4.1306ZM 8.74785 0.514676C 9.35066 0.421935 9.89956 0.787965 10.3536 1.71959C 10.8005 2.63663 11.0588 3.94301 11.0993 5.2808C 11.1399 6.61908 10.9604 7.91951 10.5886 8.82247C 10.4025 9.27444 10.1839 9.58846 9.9575 9.76977C 9.74799 9.93755 9.52216 10.0022 9.24517 9.94833L 9.0543 10.9299C 9.63757 11.0434 10.1585 10.89 10.5826 10.5503C 10.9898 10.2242 11.2917 9.74144 11.5133 9.20322C 11.9569 8.12581 12.1419 6.67223 12.0988 5.25051C 12.0557 3.82832 11.7824 2.36874 11.2525 1.28151C 10.7298 0.208855 9.85686 -0.667706 8.59579 -0.473696L 8.74785 0.514676ZM 9.22577 9.94495C 9.17981 9.93788 9.05927 9.89434 8.86375 9.76343C 8.67983 9.64029 8.46751 9.46569 8.24487 9.25146C 7.79862 8.82204 7.34411 8.2655 7.02315 7.72319C 6.86288 7.45238 6.74266 7.19643 6.67112 6.97067C 6.59808 6.74016 6.58599 6.5732 6.60469 6.46476C 6.6201 6.37538 6.65461 6.32319 6.72373 6.27916C 6.81108 6.22352 6.99145 6.15994 7.33364 6.15994L 7.33364 5.15994C 6.88726 5.15994 6.49413 5.23975 6.18645 5.43576C 5.86054 5.64338 5.67849 5.95112 5.61923 6.29486C 5.56325 6.61953 5.61837 6.95887 5.71783 7.27274C 5.81879 7.59136 5.97636 7.91787 6.16258 8.23251C 6.5346 8.8611 7.04789 9.48742 7.55149 9.97203C 7.80379 10.2148 8.06192 10.43 8.30738 10.5944C 8.54124 10.751 8.80902 10.8926 9.07371 10.9333L 9.22577 9.94495Z" transform="translate(13.0975 14.8064)" fill="black"/>
<path id="Vector_2" d="M -0.5 3.72455C -0.5 4.00069 -0.276142 4.22455 8.77564e-08 4.22455L 4.5 4.22455C 4.77614 4.22455 5 4.00069 5 3.72455C 5 3.44841 4.77614 3.22455 4.5 3.22455L 0.5 3.22455L 0.5 -0.775448C 0.5 -1.05159 0.276143 -1.27545 1.25151e-07 -1.27545C -0.276142 -1.27545 -0.5 -1.05159 -0.5 -0.775448L -0.5 3.72455ZM 21.9843 9.74634L 21.4932 9.8401L 21.4937 9.84271L 21.9843 9.74634ZM 7.26438 16.8196L 7.70663 16.5861L 7.70279 16.5791L 7.26438 16.8196ZM 15.1023 10.3198L 15.5766 10.1617L 15.5754 10.1583L 15.1023 10.3198ZM 12.7127 13.8344C 12.4365 13.8344 12.2127 14.0582 12.2127 14.3344L 12.2127 18.8344C 12.2127 19.1105 12.4365 19.3344 12.7127 19.3344C 12.9888 19.3344 13.2127 19.1105 13.2127 18.8344L 13.2127 14.8344L 17.2127 14.8344C 17.4888 14.8344 17.7127 14.6105 17.7127 14.3344C 17.7127 14.0582 17.4888 13.8344 17.2127 13.8344L 12.7127 13.8344ZM 0.353553 4.07811C 3.46509 0.966568 8.27635 -0.128459 12.5664 0.842875C 16.8393 1.81033 20.533 4.81054 21.4932 9.8401L 22.4754 9.65258C 21.4284 4.16791 17.3797 0.907371 12.7872 -0.132439C 8.21188 -1.16837 3.03462 -0.0171731 -0.353553 3.371L 0.353553 4.07811ZM 21.4937 9.84271C 21.7176 10.9829 21.2457 12.381 20.2331 13.785C 19.2308 15.1748 17.7528 16.4912 16.1287 17.4391C 14.4993 18.3901 12.7711 18.9425 11.2683 18.871C 9.79787 18.8011 8.52536 18.1376 7.70657 16.5862L 6.82219 17.0529C 7.8195 18.9426 9.42645 19.7845 11.2208 19.8699C 12.9828 19.9537 14.9047 19.3114 16.6327 18.3028C 18.3659 17.2913 19.9526 15.8835 21.0442 14.37C 22.1255 12.8706 22.7767 11.1862 22.4749 9.64997L 21.4937 9.84271ZM 7.70279 16.5791C 7.4245 16.0717 7.52089 15.2574 8.05796 14.2354C 8.57783 13.2461 9.44003 12.2057 10.4013 11.3654C 11.371 10.5175 12.3841 9.92345 13.1873 9.75476C 13.5832 9.67162 13.8835 9.70081 14.0995 9.80379C 14.303 9.90076 14.4967 10.0938 14.6291 10.4814L 15.5754 10.1583C 15.3733 9.56617 15.0204 9.13491 14.5297 8.90107C 14.0517 8.67324 13.5104 8.6651 12.9818 8.77611C 11.9361 8.99573 10.7686 9.71593 9.74307 10.6125C 8.70897 11.5166 7.76105 12.6507 7.17274 13.7702C 6.60164 14.857 6.29179 16.0859 6.82597 17.06L 7.70279 16.5791ZM 14.6279 10.478C 14.6407 10.5164 14.6629 10.6361 14.6726 10.8519C 14.6817 11.0545 14.6785 11.3067 14.6601 11.5863C 14.623 12.1484 14.5262 12.7892 14.3613 13.3278C 14.2789 13.5969 14.1838 13.8264 14.0796 14.0035C 13.9733 14.1841 13.8749 14.2806 13.7998 14.3249C 13.7414 14.3593 13.6838 14.3722 13.593 14.3468C 13.4833 14.3161 13.3074 14.222 13.0662 13.9808L 12.3591 14.6879C 12.6675 14.9963 12.9875 15.2158 13.3236 15.3099C 13.6786 15.4092 14.0167 15.3579 14.3078 15.1862C 14.5822 15.0244 14.7871 14.7729 14.9414 14.5107C 15.0978 14.2449 15.2207 13.9368 15.3175 13.6205C 15.5111 12.9881 15.6174 12.2669 15.6579 11.6521C 15.6783 11.3432 15.6826 11.0533 15.6716 10.8071C 15.6611 10.5742 15.6355 10.3384 15.5766 10.1617L 14.6279 10.478Z" transform="translate(7.62305 6.03638)" fill="black"/>
<path id="Vector_3" d="M 14.3743 24.3188C 14.5696 24.1235 14.5696 23.807 14.3743 23.6117L 11.1924 20.4297C 10.9971 20.2345 10.6805 20.2345 10.4852 20.4297C 10.29 20.625 10.29 20.9416 10.4852 21.1368L 13.3137 23.9652L 10.4852 26.7937C 10.29 26.9889 10.29 27.3055 10.4852 27.5008C 10.6805 27.696 10.9971 27.696 11.1924 27.5008L 14.3743 24.3188ZM 18.1309 8.67182L 17.6367 8.74757L 17.6367 8.74785L 18.1309 8.67182ZM 7.71224 9.14974L 8.20305 9.24517C 8.2043 9.23873 8.20543 9.23226 8.20642 9.22577L 7.71224 9.14974ZM 12.1379 7.68719C 12.3331 7.88246 12.6497 7.88246 12.845 7.68719L 16.027 4.50521C 16.2222 4.30995 16.2222 3.99337 16.027 3.79811C 15.8317 3.60284 15.5151 3.60284 15.3199 3.79811L 12.4914 6.62653L 9.66301 3.79811C 9.46775 3.60284 9.15116 3.60284 8.9559 3.79811C 8.76064 3.99337 8.76064 4.30995 8.9559 4.50521L 12.1379 7.68719ZM 14.0208 23.4652C 6.12977 23.4652 2.40543 20.9092 1.09278 17.7032C -0.243646 14.4392 0.802607 10.2507 3.02033 6.76572C 4.12158 5.03518 5.49278 3.51118 6.95161 2.39912C 8.41499 1.28359 9.93529 0.605702 11.3391 0.511385C 12.7188 0.41869 14.0219 0.885067 15.1155 2.13831C 16.2262 3.41112 17.1423 5.52271 17.6367 8.74757L 18.6251 8.59606C 18.1158 5.27342 17.1531 2.9523 15.869 1.48081C 14.5678 -0.0102479 12.9601 -0.599775 11.2721 -0.486366C 9.60826 -0.374581 7.90409 0.415638 6.34537 1.60384C 4.78211 2.7955 3.33358 4.41083 2.17667 6.22884C -0.121954 9.84096 -1.34582 14.3865 0.167349 18.0821C 1.7043 21.8359 5.94927 24.4652 14.0208 24.4652L 14.0208 23.4652ZM 17.6367 8.74785C 17.7294 9.35066 17.3634 9.89956 16.4318 10.3536C 15.5148 10.8005 14.2084 11.0588 12.8706 11.0993C 11.5323 11.1399 10.2319 10.9604 9.32891 10.5886C 8.87694 10.4025 8.56292 10.1839 8.38161 9.9575C 8.21383 9.74799 8.14919 9.52216 8.20305 9.24517L 7.22143 9.0543C 7.10802 9.63757 7.26143 10.1585 7.60106 10.5826C 7.92717 10.9898 8.40993 11.2917 8.94816 11.5133C 10.0256 11.9569 11.4792 12.1419 12.9009 12.0988C 14.3231 12.0557 15.7826 11.7824 16.8699 11.2525C 17.9425 10.7298 18.8191 9.85686 18.6251 8.59579L 17.6367 8.74785ZM 8.20642 9.22577C 8.2135 9.17981 8.25704 9.05927 8.38795 8.86375C 8.51109 8.67983 8.68569 8.46751 8.89992 8.24487C 9.32934 7.79862 9.88587 7.34411 10.4282 7.02315C 10.699 6.86288 10.9549 6.74266 11.1807 6.67112C 11.4112 6.59808 11.5782 6.58599 11.6866 6.60469C 11.776 6.6201 11.8282 6.65461 11.8722 6.72373C 11.9279 6.81108 11.9914 6.99145 11.9914 7.33364L 12.9914 7.33364C 12.9914 6.88726 12.9116 6.49413 12.7156 6.18645C 12.508 5.86054 12.2003 5.67849 11.8565 5.61923C 11.5318 5.56325 11.1925 5.61837 10.8786 5.71783C 10.56 5.81879 10.2335 5.97636 9.91886 6.16258C 9.29027 6.5346 8.66395 7.04789 8.17935 7.55149C 7.93658 7.80379 7.72137 8.06192 7.55701 8.30738C 7.40043 8.54124 7.25877 8.80902 7.21805 9.07371L 8.20642 9.22577Z" transform="translate(8.03528 13.0371)" fill="black"/>
<path id="Vector_4" d="M 15.6527 -0.5C 15.3765 -0.5 15.1527 -0.276142 15.1527 8.77564e-08L 15.1527 4.5C 15.1527 4.77614 15.3765 5 15.6527 5C 15.9288 5 16.1527 4.77614 16.1527 4.5L 16.1527 0.5L 20.1527 0.5C 20.4288 0.5 20.6527 0.276143 20.6527 1.25151e-07C 20.6527 -0.276142 20.4288 -0.5 20.1527 -0.5L 15.6527 -0.5ZM 9.63087 21.9843L 9.5371 21.4932L 9.53449 21.4937L 9.63087 21.9843ZM 2.55765 7.26438L 2.79106 7.70663L 2.79807 7.70279L 2.55765 7.26438ZM 9.05736 15.1023L 9.21548 15.5766L 9.21893 15.5754L 9.05736 15.1023ZM 5.54284 12.7127C 5.54284 12.4365 5.31898 12.2127 5.04284 12.2127L 0.542836 12.2127C 0.266694 12.2127 0.0428362 12.4365 0.0428362 12.7127C 0.0428362 12.9888 0.266694 13.2127 0.542836 13.2127L 4.54284 13.2127L 4.54284 17.2127C 4.54284 17.4888 4.76669 17.7127 5.04284 17.7127C 5.31898 17.7127 5.54284 17.4888 5.54284 17.2127L 5.54284 12.7127ZM 15.2991 0.353553C 18.4106 3.46509 19.5057 8.27635 18.5343 12.5664C 17.5669 16.8393 14.5667 20.533 9.53711 21.4932L 9.72463 22.4754C 15.2093 21.4284 18.4698 17.3797 19.5096 12.7872C 20.5456 8.21188 19.3944 3.03462 16.0062 -0.353553L 15.2991 0.353553ZM 9.53449 21.4937C 8.39434 21.7176 6.99624 21.2457 5.59219 20.2331C 4.2024 19.2308 2.88598 17.7528 1.93807 16.1287C 0.987145 14.4993 0.434696 12.7711 0.506193 11.2683C 0.57615 9.79787 1.23965 8.52536 2.79103 7.70657L 2.32428 6.82219C 0.434638 7.8195 -0.40731 9.42645 -0.492677 11.2208C -0.576503 12.9828 0.0658474 14.9047 1.0744 16.6327C 2.08596 18.3659 3.49368 19.9526 5.00725 21.0442C 6.50656 22.1255 8.19105 22.7767 9.72724 22.4749L 9.53449 21.4937ZM 2.79807 7.70279C 3.30552 7.4245 4.11978 7.52089 5.1418 8.05796C 6.13111 8.57783 7.1715 9.44003 8.01185 10.4013C 8.85968 11.371 9.45376 12.3841 9.62245 13.1873C 9.70559 13.5832 9.67639 13.8835 9.57342 14.0995C 9.47645 14.303 9.28342 14.4967 8.89579 14.6291L 9.21893 15.5754C 9.81104 15.3733 10.2423 15.0204 10.4761 14.5297C 10.704 14.0517 10.7121 13.5104 10.6011 12.9818C 10.3815 11.9361 9.66127 10.7686 8.7647 9.74307C 7.86065 8.70897 6.7265 7.76105 5.60698 7.17274C 4.52019 6.60164 3.29134 6.29179 2.31724 6.82597L 2.79807 7.70279ZM 8.89925 14.6279C 8.86085 14.6407 8.74115 14.6629 8.52527 14.6726C 8.32271 14.6817 8.07046 14.6785 7.79094 14.6601C 7.22885 14.623 6.58796 14.5262 6.04945 14.3613C 5.78032 14.2789 5.5508 14.1838 5.37373 14.0796C 5.19311 13.9733 5.09664 13.8749 5.05235 13.7998C 5.01792 13.7414 5.00497 13.6838 5.03038 13.593C 5.06107 13.4833 5.15518 13.3074 5.39639 13.0662L 4.68928 12.3591C 4.38088 12.6675 4.16136 12.9875 4.06735 13.3236C 3.96805 13.6786 4.01932 14.0167 4.19099 14.3078C 4.3528 14.5822 4.60432 14.7871 4.86652 14.9414C 5.13227 15.0978 5.44041 15.2207 5.75674 15.3175C 6.38913 15.5111 7.11031 15.6174 7.7251 15.6579C 8.03402 15.6783 8.32391 15.6826 8.57015 15.6716C 8.80305 15.6611 9.03882 15.6355 9.21548 15.5766L 8.89925 14.6279Z" transform="translate(15.4839 7.56262)" fill="black"/>
<path id="Vector_5" d="M -0.353553 14.3743C -0.158291 14.5696 0.158291 14.5696 0.353553 14.3743L 3.53553 11.1924C 3.7308 10.9971 3.7308 10.6805 3.53553 10.4852C 3.34027 10.29 3.02369 10.29 2.82843 10.4852L 0 13.3137L -2.82843 10.4852C -3.02369 10.29 -3.34027 10.29 -3.53553 10.4852C -3.7308 10.6805 -3.7308 10.9971 -3.53553 11.1924L -0.353553 14.3743ZM 15.2934 18.1309L 15.2177 17.6367L 15.2174 17.6367L 15.2934 18.1309ZM 14.8155 7.71224L 14.7201 8.20305C 14.7265 8.2043 14.733 8.20543 14.7395 8.20642L 14.8155 7.71224ZM 16.2781 12.1379C 16.0828 12.3331 16.0828 12.6497 16.2781 12.845L 19.46 16.027C 19.6553 16.2222 19.9719 16.2222 20.1671 16.027C 20.3624 15.8317 20.3624 15.5151 20.1671 15.3199L 17.3387 12.4914L 20.1671 9.66301C 20.3624 9.46775 20.3624 9.15116 20.1671 8.9559C 19.9719 8.76064 19.6553 8.76064 19.46 8.9559L 16.2781 12.1379ZM 0.5 14.0208C 0.5 6.12977 3.05608 2.40543 6.26202 1.09278C 9.52604 -0.243646 13.7145 0.802607 17.1995 3.02033C 18.9301 4.12158 20.4541 5.49278 21.5661 6.95161C 22.6817 8.41499 23.3595 9.93529 23.4539 11.3391C 23.5466 12.7188 23.0802 14.0219 21.8269 15.1155C 20.5541 16.2262 18.4425 17.1423 15.2177 17.6367L 15.3692 18.6251C 18.6918 18.1158 21.0129 17.1531 22.4844 15.869C 23.9755 14.5678 24.565 12.9601 24.4516 11.2721C 24.3398 9.60826 23.5496 7.90409 22.3614 6.34537C 21.1697 4.78211 19.5544 3.33358 17.7364 2.17667C 14.1243 -0.121954 9.5788 -1.34582 5.88311 0.167349C 2.12935 1.7043 -0.5 5.94927 -0.5 14.0208L 0.5 14.0208ZM 15.2174 17.6367C 14.6146 17.7294 14.0657 17.3634 13.6117 16.4318C 13.1648 15.5148 12.9065 14.2084 12.8659 12.8706C 12.8254 11.5323 13.0048 10.2319 13.3766 9.32891C 13.5627 8.87694 13.7813 8.56292 14.0077 8.38161C 14.2173 8.21383 14.4431 8.14919 14.7201 8.20305L 14.9109 7.22143C 14.3277 7.10802 13.8068 7.26143 13.3827 7.60106C 12.9754 7.92717 12.6736 8.40993 12.4519 8.94816C 12.0083 10.0256 11.8233 11.4792 11.8664 12.9009C 11.9095 14.3231 12.1829 15.7826 12.7127 16.8699C 13.2355 17.9425 14.1084 18.8191 15.3695 18.6251L 15.2174 17.6367ZM 14.7395 8.20642C 14.7854 8.2135 14.906 8.25704 15.1015 8.38795C 15.2854 8.51109 15.4977 8.68569 15.7204 8.89992C 16.1666 9.32934 16.6211 9.88587 16.9421 10.4282C 17.1024 10.699 17.2226 10.9549 17.2941 11.1807C 17.3672 11.4112 17.3793 11.5782 17.3606 11.6866C 17.3451 11.776 17.3106 11.8282 17.2415 11.8722C 17.1542 11.9279 16.9738 11.9914 16.6316 11.9914L 16.6316 12.9914C 17.078 12.9914 17.4711 12.9116 17.7788 12.7156C 18.1047 12.508 18.2868 12.2003 18.346 11.8565C 18.402 11.5318 18.3469 11.1925 18.2474 10.8786C 18.1465 10.56 17.9889 10.2335 17.8027 9.91886C 17.4306 9.29027 16.9174 8.66395 16.4138 8.17935C 16.1615 7.93658 15.9033 7.72137 15.6579 7.55701C 15.424 7.40043 15.1562 7.25877 14.8915 7.21805L 14.7395 8.20642Z" transform="translate(3.89514 7.97485)" fill="black"/>
<path id="Vector_6" d="M 22.5486 15.6527C 22.5486 15.3765 22.3248 15.1527 22.0486 15.1527L 17.5486 15.1527C 17.2725 15.1527 17.0486 15.3765 17.0486 15.6527C 17.0486 15.9288 17.2725 16.1527 17.5486 16.1527L 21.5486 16.1527L 21.5486 20.1527C 21.5486 20.4288 21.7725 20.6527 22.0486 20.6527C 22.3248 20.6527 22.5486 20.4288 22.5486 20.1527L 22.5486 15.6527ZM 0.064303 9.63087L 0.55544 9.5371L 0.554927 9.53449L 0.064303 9.63087ZM 14.7842 2.55765L 14.342 2.79106L 14.3458 2.79807L 14.7842 2.55765ZM 6.94635 9.05736L 6.47199 9.21548L 6.47317 9.21893L 6.94635 9.05736ZM 9.33595 5.54284C 9.61209 5.54284 9.83595 5.31898 9.83595 5.04284L 9.83595 0.542836C 9.83595 0.266694 9.61209 0.0428362 9.33595 0.0428362C 9.0598 0.0428362 8.83595 0.266694 8.83595 0.542836L 8.83595 4.54284L 4.83595 4.54284C 4.5598 4.54284 4.33595 4.76669 4.33595 5.04284C 4.33595 5.31898 4.5598 5.54284 4.83595 5.54284L 9.33595 5.54284ZM 21.6951 15.2991C 18.5835 18.4106 13.7723 19.5057 9.4822 18.5343C 5.20928 17.5669 1.51562 14.5667 0.555433 9.53711L -0.426827 9.72463C 0.620246 15.2093 4.66888 18.4698 9.26138 19.5096C 13.8367 20.5456 19.014 19.3944 22.4022 16.0062L 21.6951 15.2991ZM 0.554927 9.53449C 0.330968 8.39434 0.802892 6.99624 1.81548 5.59219C 2.81779 4.2024 4.29577 2.88598 5.91994 1.93807C 7.54926 0.987145 9.27747 0.434696 10.7803 0.506193C 12.2507 0.57615 13.5233 1.23965 14.342 2.79103L 15.2264 2.32428C 14.2291 0.434638 12.6222 -0.40731 10.8278 -0.492677C 9.06585 -0.576503 7.14395 0.0658474 5.41588 1.0744C 3.68266 2.08596 2.09599 3.49368 1.00441 5.00725C -0.0768862 6.50656 -0.728074 8.19105 -0.426321 9.72724L 0.554927 9.53449ZM 14.3458 2.79807C 14.6241 3.30552 14.5277 4.11978 13.9907 5.1418C 13.4708 6.13111 12.6086 7.1715 11.6474 8.01185C 10.6776 8.85968 9.66452 9.45376 8.8613 9.62245C 8.46541 9.70559 8.16516 9.67639 7.9491 9.57342C 7.74564 9.47645 7.55188 9.28342 7.41952 8.89579L 6.47317 9.21893C 6.67535 9.81104 7.02822 10.2423 7.51886 10.4761C 7.99691 10.704 8.53824 10.7121 9.06683 10.6011C 10.1126 10.3815 11.28 9.66127 12.3055 8.7647C 13.3396 7.86065 14.2876 6.7265 14.8759 5.60698C 15.447 4.52019 15.7568 3.29134 15.2226 2.31724L 14.3458 2.79807ZM 7.42069 8.89925C 7.40789 8.86085 7.38572 8.74115 7.37602 8.52527C 7.36692 8.32271 7.37006 8.07046 7.38851 7.79094C 7.4256 7.22885 7.52245 6.58796 7.6873 6.04945C 7.76969 5.78032 7.86484 5.5508 7.96906 5.37373C 8.07536 5.19311 8.17368 5.09664 8.24878 5.05235C 8.30717 5.01792 8.36479 5.00497 8.45562 5.03038C 8.56535 5.06107 8.74118 5.15518 8.98239 5.39639L 9.6895 4.68928C 9.3811 4.38088 9.06109 4.16136 8.72501 4.06735C 8.37003 3.96805 8.03188 4.01932 7.74079 4.19099C 7.46641 4.3528 7.26155 4.60432 7.10723 4.86652C 6.95083 5.13227 6.82794 5.44041 6.7311 5.75674C 6.53751 6.38913 6.43125 7.11031 6.39068 7.7251C 6.37029 8.03402 6.36597 8.32391 6.37703 8.57015C 6.38749 8.80305 6.41312 9.03882 6.47201 9.21548L 7.42069 8.89925Z" transform="translate(11.2864 15.4235)" fill="black"/>
<path id="Vector_7" d="M 3.77705 -0.353553C 3.58178 -0.158291 3.58178 0.158291 3.77705 0.353553L 6.95903 3.53553C 7.15429 3.7308 7.47087 3.7308 7.66613 3.53553C 7.8614 3.34027 7.8614 3.02369 7.66613 2.82843L 4.83771 0L 7.66613 -2.82843C 7.8614 -3.02369 7.8614 -3.34027 7.66613 -3.53553C 7.47087 -3.7308 7.15429 -3.7308 6.95903 -3.53553L 3.77705 -0.353553ZM 0.0204902 15.2934L 0.514718 15.2177L 0.514676 15.2174L 0.0204902 15.2934ZM 10.4391 14.8155L 9.94833 14.7201C 9.94708 14.7265 9.94595 14.733 9.94495 14.7395L 10.4391 14.8155ZM 6.0135 16.2781C 5.81823 16.0828 5.50165 16.0828 5.30639 16.2781L 2.12441 19.46C 1.92915 19.6553 1.92915 19.9719 2.12441 20.1671C 2.31967 20.3624 2.63625 20.3624 2.83152 20.1671L 5.65994 17.3387L 8.48837 20.1671C 8.68363 20.3624 9.00021 20.3624 9.19548 20.1671C 9.39074 19.9719 9.39074 19.6553 9.19548 19.46L 6.0135 16.2781ZM 4.1306 0.5C 12.0216 0.5 15.7459 3.05608 17.0586 6.26202C 18.395 9.52604 17.3488 13.7145 15.1311 17.1995C 14.0298 18.9301 12.6586 20.4541 11.1998 21.5661C 9.73639 22.6817 8.21609 23.3595 6.81226 23.4539C 5.4326 23.5466 4.1295 23.0802 3.03586 21.8269C 1.92513 20.5541 1.00904 18.4425 0.514718 15.2177L -0.473737 15.3692C 0.0355724 18.6918 0.9983 21.0129 2.2824 22.4844C 3.58358 23.9755 5.19132 24.565 6.8793 24.4516C 8.54312 24.3398 10.2473 23.5496 11.806 22.3614C 13.3693 21.1697 14.8178 19.5544 15.9747 17.7364C 18.2733 14.1243 19.4972 9.5788 17.984 5.88311C 16.4471 2.12935 12.2021 -0.5 4.1306 -0.5L 4.1306 0.5ZM 0.514676 15.2174C 0.421935 14.6146 0.787965 14.0657 1.71959 13.6117C 2.63663 13.1648 3.94301 12.9065 5.2808 12.8659C 6.61908 12.8254 7.91951 13.0048 8.82247 13.3766C 9.27444 13.5627 9.58846 13.7813 9.76977 14.0077C 9.93755 14.2173 10.0022 14.4431 9.94833 14.7201L 10.9299 14.9109C 11.0434 14.3277 10.89 13.8068 10.5503 13.3827C 10.2242 12.9754 9.74144 12.6736 9.20322 12.4519C 8.12581 12.0083 6.67223 11.8233 5.25051 11.8664C 3.82832 11.9095 2.36874 12.1829 1.28151 12.7127C 0.208855 13.2355 -0.667706 14.1084 -0.473696 15.3695L 0.514676 15.2174ZM 9.94495 14.7395C 9.93788 14.7854 9.89434 14.906 9.76343 15.1015C 9.64029 15.2854 9.46569 15.4977 9.25146 15.7204C 8.82204 16.1666 8.26551 16.6211 7.72319 16.9421C 7.45238 17.1024 7.19643 17.2226 6.97067 17.2941C 6.74016 17.3672 6.5732 17.3793 6.46476 17.3606C 6.37538 17.3451 6.32319 17.3106 6.27916 17.2415C 6.22352 17.1542 6.15994 16.9738 6.15994 16.6316L 5.15994 16.6316C 5.15994 17.078 5.23975 17.4711 5.43576 17.7788C 5.64338 18.1047 5.95112 18.2868 6.29486 18.346C 6.61953 18.402 6.95887 18.3469 7.27274 18.2474C 7.59136 18.1465 7.91787 17.9889 8.23251 17.8027C 8.8611 17.4306 9.48742 16.9174 9.97203 16.4138C 10.2148 16.1615 10.43 15.9033 10.5944 15.6579C 10.751 15.424 10.8926 15.1562 10.9333 14.8915L 9.94495 14.7395Z" transform="translate(14.8668 3.83472)" fill="black"/>
<path id="Vector_8" d="M 3.72455 22.6442C 4.00069 22.6442 4.22455 22.4203 4.22455 22.1442L 4.22455 17.6442C 4.22455 17.3681 4.00069 17.1442 3.72455 17.1442C 3.44841 17.1442 3.22455 17.3681 3.22455 17.6442L 3.22455 21.6442L -0.775448 21.6442C -1.05159 21.6442 -1.27545 21.8681 -1.27545 22.1442C -1.27545 22.4203 -1.05159 22.6442 -0.775448 22.6442L 3.72455 22.6442ZM 9.74634 0.0643026L 9.64997 -0.426325L 9.64828 -0.425988L 9.74634 0.0643026ZM 16.8196 14.7842L 16.5861 14.342L 16.5791 14.3458L 16.8196 14.7842ZM 10.3198 6.94635L 10.1617 6.47199L 10.1583 6.47317L 10.3198 6.94635ZM 13.8344 9.33595C 13.8344 9.61209 14.0582 9.83595 14.3344 9.83595L 18.8344 9.83594C 19.1105 9.83594 19.3344 9.61209 19.3344 9.33594C 19.3344 9.0598 19.1105 8.83594 18.8344 8.83594L 14.8344 8.83595L 14.8344 4.83595C 14.8344 4.5598 14.6105 4.33595 14.3344 4.33595C 14.0582 4.33595 13.8344 4.5598 13.8344 4.83595L 13.8344 9.33595ZM 4.07811 21.7906C 0.966721 18.6793 -0.12858 13.868 0.842938 9.56556C 1.81068 5.27985 4.81245 1.56098 9.8444 0.554593L 9.64828 -0.425988C 4.16599 0.67047 0.90702 4.7417 -0.132503 9.34529C -1.16825 13.9322 -0.0173255 19.1094 3.371 22.4977L 4.07811 21.7906ZM 9.84271 0.554927C 10.9829 0.330968 12.381 0.802891 13.785 1.81548C 15.1748 2.81779 16.4912 4.29577 17.4391 5.91994C 18.3901 7.54926 18.9425 9.27747 18.871 10.7803C 18.8011 12.2507 18.1376 13.5233 16.5862 14.342L 17.0529 15.2264C 18.9426 14.2291 19.7845 12.6222 19.8699 10.8278C 19.9537 9.06585 19.3114 7.14395 18.3028 5.41588C 17.2913 3.68266 15.8835 2.09599 14.37 1.00441C 12.8706 -0.0768866 11.1862 -0.728074 9.64997 -0.426322L 9.84271 0.554927ZM 16.5791 14.3458C 16.0717 14.6241 15.2574 14.5277 14.2354 13.9906C 13.2461 13.4708 12.2057 12.6086 11.3654 11.6474C 10.5175 10.6776 9.92345 9.66452 9.75476 8.8613C 9.67162 8.46542 9.70081 8.16516 9.80379 7.9491C 9.90076 7.74564 10.0938 7.55188 10.4814 7.41952L 10.1583 6.47317C 9.56617 6.67535 9.13491 7.02822 8.90107 7.51886C 8.67324 7.99691 8.6651 8.53824 8.77611 9.06683C 8.99573 10.1126 9.71593 11.28 10.6125 12.3055C 11.5166 13.3396 12.6507 14.2876 13.7702 14.8759C 14.857 15.447 16.0859 15.7568 17.06 15.2226L 16.5791 14.3458ZM 10.478 7.42069C 10.5164 7.40789 10.6361 7.38572 10.8519 7.37602C 11.0545 7.36692 11.3067 7.37006 11.5863 7.38851C 12.1484 7.4256 12.7892 7.52245 13.3278 7.6873C 13.5969 7.76969 13.8264 7.86484 14.0035 7.96906C 14.1841 8.07536 14.2806 8.17368 14.3249 8.24878C 14.3593 8.30717 14.3722 8.36479 14.3468 8.45562C 14.3161 8.56535 14.222 8.74118 13.9808 8.98239L 14.6879 9.6895C 14.9963 9.3811 15.2158 9.06109 15.3099 8.72501C 15.4092 8.37003 15.3579 8.03188 15.1862 7.74079C 15.0244 7.46641 14.7729 7.26155 14.5107 7.10723C 14.2449 6.95083 13.9368 6.82794 13.6205 6.7311C 12.9881 6.53751 12.2669 6.43125 11.6521 6.39068C 11.3432 6.37029 11.0533 6.36597 10.8071 6.37703C 10.5742 6.38749 10.3384 6.41312 10.1617 6.47201L 10.478 7.42069Z" transform="translate(6.0968 11.1304)" fill="black"/>
<path id="Vector_9" d="M 24.3188 3.77705C 24.1235 3.58178 23.807 3.58178 23.6117 3.77705L 20.4297 6.95903C 20.2345 7.15429 20.2345 7.47087 20.4297 7.66613C 20.625 7.8614 20.9416 7.8614 21.1368 7.66613L 23.9652 4.83771L 26.7937 7.66613C 26.9889 7.8614 27.3055 7.8614 27.5008 7.66613C 27.696 7.47087 27.696 7.15429 27.5008 6.95903L 24.3188 3.77705ZM 8.67182 0.0204902L 8.74757 0.514718L 8.74785 0.514676L 8.67182 0.0204902ZM 9.14974 10.4391L 9.24517 9.94833C 9.23873 9.94708 9.23226 9.94595 9.22577 9.94495L 9.14974 10.4391ZM 7.68719 6.0135C 7.88246 5.81823 7.88246 5.50165 7.68719 5.30639L 4.50521 2.12441C 4.30995 1.92915 3.99337 1.92915 3.79811 2.12441C 3.60284 2.31967 3.60284 2.63625 3.79811 2.83152L 6.62653 5.65994L 3.79811 8.48837C 3.60284 8.68363 3.60284 9.00021 3.79811 9.19548C 3.99337 9.39074 4.30995 9.39074 4.50521 9.19548L 7.68719 6.0135ZM 23.4652 4.1306C 23.4652 12.0216 20.9092 15.7459 17.7032 17.0586C 14.4392 18.395 10.2507 17.3488 6.76572 15.1311C 5.03518 14.0298 3.51118 12.6586 2.39912 11.1998C 1.28359 9.73639 0.605702 8.21609 0.511385 6.81226C 0.41869 5.4326 0.885067 4.1295 2.13831 3.03586C 3.41112 1.92513 5.52271 1.00904 8.74757 0.514718L 8.59606 -0.473737C 5.27342 0.0355724 2.9523 0.9983 1.48081 2.2824C -0.0102479 3.58358 -0.599775 5.19132 -0.486366 6.8793C -0.374581 8.54312 0.415638 10.2473 1.60384 11.806C 2.7955 13.3693 4.41083 14.8178 6.22884 15.9747C 9.84096 18.2733 14.3865 19.4972 18.0821 17.984C 21.8359 16.4471 24.4652 12.2021 24.4652 4.1306L 23.4652 4.1306ZM 8.74785 0.514676C 9.35066 0.421935 9.89956 0.787965 10.3536 1.71959C 10.8005 2.63663 11.0588 3.94301 11.0993 5.2808C 11.1399 6.61908 10.9604 7.91951 10.5886 8.82247C 10.4025 9.27444 10.1839 9.58846 9.9575 9.76977C 9.74799 9.93755 9.52216 10.0022 9.24517 9.94833L 9.0543 10.9299C 9.63757 11.0434 10.1585 10.89 10.5826 10.5503C 10.9898 10.2242 11.2917 9.74144 11.5133 9.20322C 11.9569 8.12581 12.1419 6.67223 12.0988 5.25051C 12.0557 3.82832 11.7824 2.36874 11.2525 1.28151C 10.7298 0.208855 9.85686 -0.667706 8.59579 -0.473696L 8.74785 0.514676ZM 9.22577 9.94495C 9.17981 9.93788 9.05927 9.89434 8.86375 9.76343C 8.67983 9.64029 8.46751 9.46569 8.24487 9.25146C 7.79862 8.82204 7.34411 8.2655 7.02315 7.72319C 6.86288 7.45238 6.74266 7.19643 6.67112 6.97067C 6.59808 6.74016 6.58599 6.5732 6.60469 6.46476C 6.6201 6.37538 6.65461 6.32319 6.72373 6.27916C 6.81108 6.22352 6.99145 6.15994 7.33364 6.15994L 7.33364 5.15994C 6.88726 5.15994 6.49413 5.23975 6.18645 5.43576C 5.86054 5.64338 5.67849 5.95112 5.61923 6.29486C 5.56325 6.61953 5.61837 6.95887 5.71783 7.27274C 5.81879 7.59136 5.97636 7.91787 6.16258 8.23251C 6.5346 8.8611 7.04789 9.48742 7.55149 9.97203C 7.80379 10.2148 8.06192 10.43 8.30738 10.5944C 8.54124 10.751 8.80902 10.8926 9.07371 10.9333L 9.22577 9.94495Z" transform="translate(13.0975 14.8064)" fill="black"/>
<path id="Vector_10" d="M -0.5 3.72455C -0.5 4.00069 -0.276142 4.22455 8.77564e-08 4.22455L 4.5 4.22455C 4.77614 4.22455 5 4.00069 5 3.72455C 5 3.44841 4.77614 3.22455 4.5 3.22455L 0.5 3.22455L 0.5 -0.775448C 0.5 -1.05159 0.276143 -1.27545 1.25151e-07 -1.27545C -0.276142 -1.27545 -0.5 -1.05159 -0.5 -0.775448L -0.5 3.72455ZM 21.9843 9.74634L 21.4932 9.8401L 21.4937 9.84271L 21.9843 9.74634ZM 7.26438 16.8196L 7.70663 16.5861L 7.70279 16.5791L 7.26438 16.8196ZM 15.1023 10.3198L 15.5766 10.1617L 15.5754 10.1583L 15.1023 10.3198ZM 12.7127 13.8344C 12.4365 13.8344 12.2127 14.0582 12.2127 14.3344L 12.2127 18.8344C 12.2127 19.1105 12.4365 19.3344 12.7127 19.3344C 12.9888 19.3344 13.2127 19.1105 13.2127 18.8344L 13.2127 14.8344L 17.2127 14.8344C 17.4888 14.8344 17.7127 14.6105 17.7127 14.3344C 17.7127 14.0582 17.4888 13.8344 17.2127 13.8344L 12.7127 13.8344ZM 0.353553 4.07811C 3.46509 0.966568 8.27635 -0.128459 12.5664 0.842875C 16.8393 1.81033 20.533 4.81054 21.4932 9.8401L 22.4754 9.65258C 21.4284 4.16791 17.3797 0.907371 12.7872 -0.132439C 8.21188 -1.16837 3.03462 -0.0171731 -0.353553 3.371L 0.353553 4.07811ZM 21.4937 9.84271C 21.7176 10.9829 21.2457 12.381 20.2331 13.785C 19.2308 15.1748 17.7528 16.4912 16.1287 17.4391C 14.4993 18.3901 12.7711 18.9425 11.2683 18.871C 9.79787 18.8011 8.52536 18.1376 7.70657 16.5862L 6.82219 17.0529C 7.8195 18.9426 9.42645 19.7845 11.2208 19.8699C 12.9828 19.9537 14.9047 19.3114 16.6327 18.3028C 18.3659 17.2913 19.9526 15.8835 21.0442 14.37C 22.1255 12.8706 22.7767 11.1862 22.4749 9.64997L 21.4937 9.84271ZM 7.70279 16.5791C 7.4245 16.0717 7.52089 15.2574 8.05796 14.2354C 8.57783 13.2461 9.44003 12.2057 10.4013 11.3654C 11.371 10.5175 12.3841 9.92345 13.1873 9.75476C 13.5832 9.67162 13.8835 9.70081 14.0995 9.80379C 14.303 9.90076 14.4967 10.0938 14.6291 10.4814L 15.5754 10.1583C 15.3733 9.56617 15.0204 9.13491 14.5297 8.90107C 14.0517 8.67324 13.5104 8.6651 12.9818 8.77611C 11.9361 8.99573 10.7686 9.71593 9.74307 10.6125C 8.70897 11.5166 7.76105 12.6507 7.17274 13.7702C 6.60164 14.857 6.29179 16.0859 6.82597 17.06L 7.70279 16.5791ZM 14.6279 10.478C 14.6407 10.5164 14.6629 10.6361 14.6726 10.8519C 14.6817 11.0545 14.6785 11.3067 14.6601 11.5863C 14.623 12.1484 14.5262 12.7892 14.3613 13.3278C 14.2789 13.5969 14.1838 13.8264 14.0796 14.0035C 13.9733 14.1841 13.8749 14.2806 13.7998 14.3249C 13.7414 14.3593 13.6838 14.3722 13.593 14.3468C 13.4833 14.3161 13.3074 14.222 13.0662 13.9808L 12.3591 14.6879C 12.6675 14.9963 12.9875 15.2158 13.3236 15.3099C 13.6786 15.4092 14.0167 15.3579 14.3078 15.1862C 14.5822 15.0244 14.7871 14.7729 14.9414 14.5107C 15.0978 14.2449 15.2207 13.9368 15.3175 13.6205C 15.5111 12.9881 15.6174 12.2669 15.6579 11.6521C 15.6783 11.3432 15.6826 11.0533 15.6716 10.8071C 15.6611 10.5742 15.6355 10.3384 15.5766 10.1617L 14.6279 10.478Z" transform="translate(7.62305 6.03638)" fill="black"/>
<path id="Vector_11" d="M 14.3743 24.3188C 14.5696 24.1235 14.5696 23.807 14.3743 23.6117L 11.1924 20.4297C 10.9971 20.2345 10.6805 20.2345 10.4852 20.4297C 10.29 20.625 10.29 20.9416 10.4852 21.1368L 13.3137 23.9652L 10.4852 26.7937C 10.29 26.9889 10.29 27.3055 10.4852 27.5008C 10.6805 27.696 10.9971 27.696 11.1924 27.5008L 14.3743 24.3188ZM 18.1309 8.67182L 17.6367 8.74757L 17.6367 8.74785L 18.1309 8.67182ZM 7.71224 9.14974L 8.20305 9.24517C 8.2043 9.23873 8.20543 9.23226 8.20642 9.22577L 7.71224 9.14974ZM 12.1379 7.68719C 12.3331 7.88246 12.6497 7.88246 12.845 7.68719L 16.027 4.50521C 16.2222 4.30995 16.2222 3.99337 16.027 3.79811C 15.8317 3.60284 15.5151 3.60284 15.3199 3.79811L 12.4914 6.62653L 9.66301 3.79811C 9.46775 3.60284 9.15116 3.60284 8.9559 3.79811C 8.76064 3.99337 8.76064 4.30995 8.9559 4.50521L 12.1379 7.68719ZM 14.0208 23.4652C 6.12977 23.4652 2.40543 20.9092 1.09278 17.7032C -0.243646 14.4392 0.802607 10.2507 3.02033 6.76572C 4.12158 5.03518 5.49278 3.51118 6.95161 2.39912C 8.41499 1.28359 9.93529 0.605702 11.3391 0.511385C 12.7188 0.41869 14.0219 0.885067 15.1155 2.13831C 16.2262 3.41112 17.1423 5.52271 17.6367 8.74757L 18.6251 8.59606C 18.1158 5.27342 17.1531 2.9523 15.869 1.48081C 14.5678 -0.0102479 12.9601 -0.599775 11.2721 -0.486366C 9.60826 -0.374581 7.90409 0.415638 6.34537 1.60384C 4.78211 2.7955 3.33358 4.41083 2.17667 6.22884C -0.121954 9.84096 -1.34582 14.3865 0.167349 18.0821C 1.7043 21.8359 5.94927 24.4652 14.0208 24.4652L 14.0208 23.4652ZM 17.6367 8.74785C 17.7294 9.35066 17.3634 9.89956 16.4318 10.3536C 15.5148 10.8005 14.2084 11.0588 12.8706 11.0993C 11.5323 11.1399 10.2319 10.9604 9.32891 10.5886C 8.87694 10.4025 8.56292 10.1839 8.38161 9.9575C 8.21383 9.74799 8.14919 9.52216 8.20305 9.24517L 7.22143 9.0543C 7.10802 9.63757 7.26143 10.1585 7.60106 10.5826C 7.92717 10.9898 8.40993 11.2917 8.94816 11.5133C 10.0256 11.9569 11.4792 12.1419 12.9009 12.0988C 14.3231 12.0557 15.7826 11.7824 16.8699 11.2525C 17.9425 10.7298 18.8191 9.85686 18.6251 8.59579L 17.6367 8.74785ZM 8.20642 9.22577C 8.2135 9.17981 8.25704 9.05927 8.38795 8.86375C 8.51109 8.67983 8.68569 8.46751 8.89992 8.24487C 9.32934 7.79862 9.88587 7.34411 10.4282 7.02315C 10.699 6.86288 10.9549 6.74266 11.1807 6.67112C 11.4112 6.59808 11.5782 6.58599 11.6866 6.60469C 11.776 6.6201 11.8282 6.65461 11.8722 6.72373C 11.9279 6.81108 11.9914 6.99145 11.9914 7.33364L 12.9914 7.33364C 12.9914 6.88726 12.9116 6.49413 12.7156 6.18645C 12.508 5.86054 12.2003 5.67849 11.8565 5.61923C 11.5318 5.56325 11.1925 5.61837 10.8786 5.71783C 10.56 5.81879 10.2335 5.97636 9.91886 6.16258C 9.29027 6.5346 8.66395 7.04789 8.17935 7.55149C 7.93658 7.80379 7.72137 8.06192 7.55701 8.30738C 7.40043 8.54124 7.25877 8.80902 7.21805 9.07371L 8.20642 9.22577Z" transform="translate(8.03528 13.0371)" fill="black"/>
<path id="Vector_12" d="M 15.6527 -0.5C 15.3765 -0.5 15.1527 -0.276142 15.1527 8.77564e-08L 15.1527 4.5C 15.1527 4.77614 15.3765 5 15.6527 5C 15.9288 5 16.1527 4.77614 16.1527 4.5L 16.1527 0.5L 20.1527 0.5C 20.4288 0.5 20.6527 0.276143 20.6527 1.25151e-07C 20.6527 -0.276142 20.4288 -0.5 20.1527 -0.5L 15.6527 -0.5ZM 9.63087 21.9843L 9.5371 21.4932L 9.53449 21.4937L 9.63087 21.9843ZM 2.55765 7.26438L 2.79106 7.70663L 2.79807 7.70279L 2.55765 7.26438ZM 9.05736 15.1023L 9.21548 15.5766L 9.21893 15.5754L 9.05736 15.1023ZM 5.54284 12.7127C 5.54284 12.4365 5.31898 12.2127 5.04284 12.2127L 0.542836 12.2127C 0.266694 12.2127 0.0428362 12.4365 0.0428362 12.7127C 0.0428362 12.9888 0.266694 13.2127 0.542836 13.2127L 4.54284 13.2127L 4.54284 17.2127C 4.54284 17.4888 4.76669 17.7127 5.04284 17.7127C 5.31898 17.7127 5.54284 17.4888 5.54284 17.2127L 5.54284 12.7127ZM 15.2991 0.353553C 18.4106 3.46509 19.5057 8.27635 18.5343 12.5664C 17.5669 16.8393 14.5667 20.533 9.53711 21.4932L 9.72463 22.4754C 15.2093 21.4284 18.4698 17.3797 19.5096 12.7872C 20.5456 8.21188 19.3944 3.03462 16.0062 -0.353553L 15.2991 0.353553ZM 9.53449 21.4937C 8.39434 21.7176 6.99624 21.2457 5.59219 20.2331C 4.2024 19.2308 2.88598 17.7528 1.93807 16.1287C 0.987145 14.4993 0.434696 12.7711 0.506193 11.2683C 0.57615 9.79787 1.23965 8.52536 2.79103 7.70657L 2.32428 6.82219C 0.434638 7.8195 -0.40731 9.42645 -0.492677 11.2208C -0.576503 12.9828 0.0658474 14.9047 1.0744 16.6327C 2.08596 18.3659 3.49368 19.9526 5.00725 21.0442C 6.50656 22.1255 8.19105 22.7767 9.72724 22.4749L 9.53449 21.4937ZM 2.79807 7.70279C 3.30552 7.4245 4.11978 7.52089 5.1418 8.05796C 6.13111 8.57783 7.1715 9.44003 8.01185 10.4013C 8.85968 11.371 9.45376 12.3841 9.62245 13.1873C 9.70559 13.5832 9.67639 13.8835 9.57342 14.0995C 9.47645 14.303 9.28342 14.4967 8.89579 14.6291L 9.21893 15.5754C 9.81104 15.3733 10.2423 15.0204 10.4761 14.5297C 10.704 14.0517 10.7121 13.5104 10.6011 12.9818C 10.3815 11.9361 9.66127 10.7686 8.7647 9.74307C 7.86065 8.70897 6.7265 7.76105 5.60698 7.17274C 4.52019 6.60164 3.29134 6.29179 2.31724 6.82597L 2.79807 7.70279ZM 8.89925 14.6279C 8.86085 14.6407 8.74115 14.6629 8.52527 14.6726C 8.32271 14.6817 8.07046 14.6785 7.79094 14.6601C 7.22885 14.623 6.58796 14.5262 6.04945 14.3613C 5.78032 14.2789 5.5508 14.1838 5.37373 14.0796C 5.19311 13.9733 5.09664 13.8749 5.05235 13.7998C 5.01792 13.7414 5.00497 13.6838 5.03038 13.593C 5.06107 13.4833 5.15518 13.3074 5.39639 13.0662L 4.68928 12.3591C 4.38088 12.6675 4.16136 12.9875 4.06735 13.3236C 3.96805 13.6786 4.01932 14.0167 4.19099 14.3078C 4.3528 14.5822 4.60432 14.7871 4.86652 14.9414C 5.13227 15.0978 5.44041 15.2207 5.75674 15.3175C 6.38913 15.5111 7.11031 15.6174 7.7251 15.6579C 8.03402 15.6783 8.32391 15.6826 8.57015 15.6716C 8.80305 15.6611 9.03882 15.6355 9.21548 15.5766L 8.89925 14.6279Z" transform="translate(15.4839 7.56262)" fill="black"/>
</g>
</g>
</g>
</svg>
